%TF.GenerationSoftware,KiCad,Pcbnew,10.0.6*%
%TF.CreationDate,2026-09-22T13:19:03+03:00*%
%TF.ProjectId,power_mux_board,706f7765-725f-46d7-9578-5f626f617264,rev?*%
%TF.SameCoordinates,Original*%
%TF.FileFunction,Copper,L2,Bot*%
%TF.FilePolarity,Positive*%
%FSLAX46Y46*%
G04 Gerber Fmt 4.6, Leading zero omitted, Abs format (unit mm)*
G04 Created by KiCad (PCBNEW 10.0.6) date 2026-09-22 13:19:03*
%MOMM*%
%LPD*%
G01*
G04 APERTURE LIST*
%TA.AperFunction,ComponentPad*%
%ADD10C,2.000000*%
%TD*%
G04 APERTURE END LIST*
D10*
%TO.P,GB5V,1*%
%TO.N,VCCB*%
X142160000Y-101350000D03*
%TD*%
%TO.P,GND,1*%
%TO.N,GND*%
X142160000Y-98250000D03*
%TD*%
%TO.P,USB5V,1*%
%TO.N,+5V (USB)*%
X142160000Y-104450000D03*
%TD*%
%TO.P,3.3V,1*%
%TO.N,+3.3V*%
X157789025Y-105401955D03*
%TD*%
%TA.AperFunction,Conductor*%
%TO.N,GND*%
G36*
X160501564Y-95182140D02*
G01*
X160547319Y-95234944D01*
X160558525Y-95286455D01*
X160558525Y-107827455D01*
X160538840Y-107894494D01*
X160486036Y-107940249D01*
X160434525Y-107951455D01*
X139353525Y-107951455D01*
X139286486Y-107931770D01*
X139240731Y-107878966D01*
X139229525Y-107827455D01*
X139229525Y-104351577D01*
X140909500Y-104351577D01*
X140909500Y-104548422D01*
X140940290Y-104742826D01*
X141001117Y-104930029D01*
X141090476Y-105105405D01*
X141206172Y-105264646D01*
X141345354Y-105403828D01*
X141504595Y-105519524D01*
X141587455Y-105561743D01*
X141679970Y-105608882D01*
X141679972Y-105608882D01*
X141679975Y-105608884D01*
X141780317Y-105641487D01*
X141867173Y-105669709D01*
X142061578Y-105700500D01*
X142061583Y-105700500D01*
X142258422Y-105700500D01*
X142452826Y-105669709D01*
X142640025Y-105608884D01*
X142815405Y-105519524D01*
X142974646Y-105403828D01*
X143074942Y-105303532D01*
X156538525Y-105303532D01*
X156538525Y-105500377D01*
X156569315Y-105694781D01*
X156630142Y-105881984D01*
X156719501Y-106057360D01*
X156835197Y-106216601D01*
X156974379Y-106355783D01*
X157133620Y-106471479D01*
X157216480Y-106513698D01*
X157308995Y-106560837D01*
X157308997Y-106560837D01*
X157309000Y-106560839D01*
X157409342Y-106593442D01*
X157496198Y-106621664D01*
X157690603Y-106652455D01*
X157690608Y-106652455D01*
X157887447Y-106652455D01*
X158081851Y-106621664D01*
X158269050Y-106560839D01*
X158444430Y-106471479D01*
X158603671Y-106355783D01*
X158742853Y-106216601D01*
X158858549Y-106057360D01*
X158947909Y-105881980D01*
X159008734Y-105694781D01*
X159036492Y-105519524D01*
X159039525Y-105500377D01*
X159039525Y-105303532D01*
X159008734Y-105109128D01*
X158980512Y-105022272D01*
X158947909Y-104921930D01*
X158947907Y-104921927D01*
X158947907Y-104921925D01*
X158858548Y-104746549D01*
X158855843Y-104742826D01*
X158742853Y-104587309D01*
X158603671Y-104448127D01*
X158444430Y-104332431D01*
X158269054Y-104243072D01*
X158081851Y-104182245D01*
X157887447Y-104151455D01*
X157887442Y-104151455D01*
X157690608Y-104151455D01*
X157690603Y-104151455D01*
X157496198Y-104182245D01*
X157308995Y-104243072D01*
X157133619Y-104332431D01*
X157042766Y-104398440D01*
X156974379Y-104448127D01*
X156974377Y-104448129D01*
X156974376Y-104448129D01*
X156835199Y-104587306D01*
X156835199Y-104587307D01*
X156835197Y-104587309D01*
X156785510Y-104655696D01*
X156719501Y-104746549D01*
X156630142Y-104921925D01*
X156569315Y-105109128D01*
X156538525Y-105303532D01*
X143074942Y-105303532D01*
X143113828Y-105264646D01*
X143229524Y-105105405D01*
X143318884Y-104930025D01*
X143379709Y-104742826D01*
X143410500Y-104548422D01*
X143410500Y-104351577D01*
X143379709Y-104157173D01*
X143318882Y-103969970D01*
X143229523Y-103794594D01*
X143113828Y-103635354D01*
X142974646Y-103496172D01*
X142815405Y-103380476D01*
X142640029Y-103291117D01*
X142452826Y-103230290D01*
X142258422Y-103199500D01*
X142258417Y-103199500D01*
X142061583Y-103199500D01*
X142061578Y-103199500D01*
X141867173Y-103230290D01*
X141679970Y-103291117D01*
X141504594Y-103380476D01*
X141413741Y-103446485D01*
X141345354Y-103496172D01*
X141345352Y-103496174D01*
X141345351Y-103496174D01*
X141206174Y-103635351D01*
X141206174Y-103635352D01*
X141206172Y-103635354D01*
X141156485Y-103703741D01*
X141090476Y-103794594D01*
X141001117Y-103969970D01*
X140940290Y-104157173D01*
X140909500Y-104351577D01*
X139229525Y-104351577D01*
X139229525Y-101251577D01*
X140909500Y-101251577D01*
X140909500Y-101448422D01*
X140940290Y-101642826D01*
X141001117Y-101830029D01*
X141090476Y-102005405D01*
X141206172Y-102164646D01*
X141345354Y-102303828D01*
X141504595Y-102419524D01*
X141587455Y-102461743D01*
X141679970Y-102508882D01*
X141679972Y-102508882D01*
X141679975Y-102508884D01*
X141780317Y-102541487D01*
X141867173Y-102569709D01*
X142061578Y-102600500D01*
X142061583Y-102600500D01*
X142258422Y-102600500D01*
X142452826Y-102569709D01*
X142640025Y-102508884D01*
X142815405Y-102419524D01*
X142974646Y-102303828D01*
X143113828Y-102164646D01*
X143229524Y-102005405D01*
X143318884Y-101830025D01*
X143379709Y-101642826D01*
X143410500Y-101448422D01*
X143410500Y-101251577D01*
X143379709Y-101057173D01*
X143318882Y-100869970D01*
X143229523Y-100694594D01*
X143113828Y-100535354D01*
X142974646Y-100396172D01*
X142815405Y-100280476D01*
X142640029Y-100191117D01*
X142452826Y-100130290D01*
X142258422Y-100099500D01*
X142258417Y-100099500D01*
X142061583Y-100099500D01*
X142061578Y-100099500D01*
X141867173Y-100130290D01*
X141679970Y-100191117D01*
X141504594Y-100280476D01*
X141413741Y-100346485D01*
X141345354Y-100396172D01*
X141345352Y-100396174D01*
X141345351Y-100396174D01*
X141206174Y-100535351D01*
X141206174Y-100535352D01*
X141206172Y-100535354D01*
X141156485Y-100603741D01*
X141090476Y-100694594D01*
X141001117Y-100869970D01*
X140940290Y-101057173D01*
X140909500Y-101251577D01*
X139229525Y-101251577D01*
X139229525Y-98131947D01*
X140660000Y-98131947D01*
X140660000Y-98368052D01*
X140696934Y-98601247D01*
X140769897Y-98825802D01*
X140877087Y-99036174D01*
X140937338Y-99119104D01*
X140937340Y-99119105D01*
X141677037Y-98379408D01*
X141694075Y-98442993D01*
X141759901Y-98557007D01*
X141852993Y-98650099D01*
X141967007Y-98715925D01*
X142030590Y-98732962D01*
X141290893Y-99472658D01*
X141373828Y-99532914D01*
X141584197Y-99640102D01*
X141808752Y-99713065D01*
X141808751Y-99713065D01*
X142041948Y-99750000D01*
X142278052Y-99750000D01*
X142511247Y-99713065D01*
X142735802Y-99640102D01*
X142946163Y-99532918D01*
X142946169Y-99532914D01*
X143029104Y-99472658D01*
X143029105Y-99472658D01*
X142289408Y-98732962D01*
X142352993Y-98715925D01*
X142467007Y-98650099D01*
X142560099Y-98557007D01*
X142625925Y-98442993D01*
X142642962Y-98379408D01*
X143382658Y-99119105D01*
X143382658Y-99119104D01*
X143442914Y-99036169D01*
X143442918Y-99036163D01*
X143550102Y-98825802D01*
X143623065Y-98601247D01*
X143660000Y-98368052D01*
X143660000Y-98131947D01*
X143623065Y-97898752D01*
X143550102Y-97674197D01*
X143442914Y-97463828D01*
X143382658Y-97380894D01*
X143382658Y-97380893D01*
X142642962Y-98120590D01*
X142625925Y-98057007D01*
X142560099Y-97942993D01*
X142467007Y-97849901D01*
X142352993Y-97784075D01*
X142289409Y-97767037D01*
X143029105Y-97027340D01*
X143029104Y-97027338D01*
X142946174Y-96967087D01*
X142735802Y-96859897D01*
X142511247Y-96786934D01*
X142511248Y-96786934D01*
X142278052Y-96750000D01*
X142041948Y-96750000D01*
X141808752Y-96786934D01*
X141584197Y-96859897D01*
X141373830Y-96967084D01*
X141290894Y-97027340D01*
X142030591Y-97767037D01*
X141967007Y-97784075D01*
X141852993Y-97849901D01*
X141759901Y-97942993D01*
X141694075Y-98057007D01*
X141677037Y-98120591D01*
X140937340Y-97380894D01*
X140877084Y-97463830D01*
X140769897Y-97674197D01*
X140696934Y-97898752D01*
X140660000Y-98131947D01*
X139229525Y-98131947D01*
X139229525Y-95286455D01*
X139249210Y-95219416D01*
X139302014Y-95173661D01*
X139353525Y-95162455D01*
X160434525Y-95162455D01*
X160501564Y-95182140D01*
G37*
%TD.AperFunction*%
%TD*%
M02*
